<svg width="118" height="58" viewBox="0 0 118 58" fill="none" xmlns="http://www.w3.org/2000/svg">
<path d="M17.4899 17C18.6492 15.0245 21.5054 15.0245 22.6647 17L37.4113 42.1294C38.585 44.1293 37.1428 46.6477 34.824 46.6477H5.33066C3.01181 46.6477 1.56966 44.1293 2.74327 42.1294L17.4899 17Z" fill="#D9D9D9"/>
<path d="M47.6132 41C46.4539 42.9755 43.5977 42.9755 42.4384 41L27.6917 15.8706C26.5181 13.8707 27.9603 11.3523 30.2791 11.3523L59.7724 11.3523C62.0913 11.3523 63.5334 13.8707 62.3598 15.8706L47.6132 41Z" fill="#BB6BD9"/>
<path d="M67.3868 17C68.5461 15.0245 71.4023 15.0245 72.5616 17L87.3082 42.1294C88.4819 44.1293 87.0397 46.6477 84.7209 46.6477H55.2276C52.9087 46.6477 51.4666 44.1293 52.6402 42.1294L67.3868 17Z" fill="#D9D9D9"/>
<path d="M97.5101 41C96.3508 42.9755 93.4946 42.9755 92.3353 41L77.5886 15.8706C76.415 13.8707 77.8572 11.3523 80.176 11.3523L109.669 11.3523C111.988 11.3523 113.43 13.8707 112.257 15.8706L97.5101 41Z" fill="#D9D9D9"/>
</svg>
